<svg width="19" height="29" viewBox="0 0 19 29" fill="none" xmlns="http://www.w3.org/2000/svg">
<path fill-rule="evenodd" clip-rule="evenodd" d="M7.44735 0.327105L6.21398 0.653859L4.94852 1.3434L3.68338 2.0326L2.35764 3.64118L1.0319 5.24942L0.515949 6.86674L0 8.48373V10.1074V11.7306L0.520862 13.6306L1.04205 15.531L2.50603 18.5141L3.97002 21.4972L6.58743 25.2486L9.20517 29H9.49345H9.78172L12.0283 25.7639L14.2749 22.5279L15.1286 21.1047L15.9819 19.6815L16.9627 17.6063L17.9435 15.531L18.4719 13.6306L19 11.7306V10.1074V8.48373L18.4785 6.84925L17.957 5.21478L16.5225 3.51104L15.0883 1.8073L13.5093 1.08172L11.93 0.356141L10.3055 0.178071L8.68103 0L7.44735 0.327105ZM10.9139 7.00074L11.6293 7.39151L12.1954 8.13773L12.7614 8.88395L12.7687 10.3197L12.7759 11.7555L11.9847 12.6672L11.1936 13.5785L10.3468 13.8056L9.5 14.0326L8.65319 13.8056L7.80638 13.5785L7.01526 12.6672L6.22414 11.7555L6.23134 10.3197L6.23855 8.88395L6.80462 8.14228L7.37069 7.40096L8.02586 7.01613L8.68103 6.6313L9.43972 6.62046L10.1981 6.60996L10.9139 7.00074Z" fill="#3F4D33"/>
</svg>
