<svg width="93" height="84" viewBox="0 0 93 84" fill="none" xmlns="http://www.w3.org/2000/svg">
<path d="M32.7104 65.2766L14.8094 0.0894775L0 65.2766H13.6105V84H16.2496V65.2766H32.7104ZM3.30271 62.6662L15.0507 10.9298L29.2569 62.6662H16.2496V56.2262L21.0416 50.6737L19.0358 48.9807L16.2496 52.2063V46.005L21.0076 40.8962L19.066 39.1249L16.2496 42.138V34.0907H13.6105V42.0037L11.1108 39.1547L9.11638 40.8664L13.6105 45.9826V52.0422L11.141 49.0068L9.08621 50.6439L13.6105 56.2038V62.6662H3.30271Z" fill="black"/>
<path d="M92.5473 65.2355L74.6501 0.0484619L59.8369 65.2355H73.4474V83.959H76.0865V65.2355H92.5473ZM63.1396 62.6252L74.8876 10.8887L89.0938 62.6252H76.0865V56.1852L80.8785 50.6327L78.8727 48.936L76.0865 52.1616V45.9639L80.8445 40.8515L78.9029 39.0839L76.0865 42.1119V34.0497H73.4474V41.959L70.9477 39.1137L68.9533 40.8254L73.4474 45.9416V52.0012L70.9779 48.9658L68.9231 50.6028L73.4474 56.1628V62.6252H63.1396Z" fill="black"/>
<path d="M60.0889 59.3101L44.1485 0L30.8472 59.3101H42.9458V75.8931H45.5849V59.3101H60.0889ZM36.0689 48.082L42.9458 52.5569V55.9876L35.3111 51.4605L36.0689 48.082ZM40.4461 28.5643L42.9458 31.2791V34.6799L39.6695 32.0286L40.4461 28.5643ZM45.5849 49.5401V45.0653L52.3713 40.8179L53.4534 44.8527L45.5849 49.5401ZM54.1772 47.4742L55.2404 51.4307L45.5849 56.2784V52.5793L54.1772 47.4742ZM45.5849 41.9739V38.2449L50.6898 34.5159L51.6776 38.1852L45.5849 41.9739ZM45.5849 34.9894V31.3238L48.9781 28.1728L49.9471 31.775L45.5849 34.9894ZM42.9458 38.0472V41.862L38.1878 38.629L39.0285 34.8738L42.9458 38.0472ZM42.9458 45.028V49.4282L36.6797 45.3561L37.5732 41.3922L42.9458 45.028ZM50.5616 56.6998L55.9304 54.0112L56.6543 56.6998H50.5616ZM44.3785 11.023L48.2241 25.3238L44.3408 28.9149L41.1436 25.4469L44.3785 11.023ZM34.7116 54.138L39.0285 56.6998H34.1273L34.7116 54.138Z" fill="black"/>
</svg>
