<svg width="177" height="44" viewBox="0 0 177 44" fill="none" xmlns="http://www.w3.org/2000/svg">
<g clip-path="url(#clip0_1_37)">
<path d="M17.134 34.1925L7.7573 0.0468826L0 34.1925H7.12929V44H8.5117V34.1925H17.134ZM1.72999 32.8252L7.88369 5.72512L15.325 32.8252H8.5117V29.4518L11.0218 26.5434L9.97114 25.6566L8.5117 27.3462V24.0978L11.004 21.4218L9.98694 20.494L8.5117 22.0723V17.8571H7.12929V22.002L5.81995 20.5096L4.77524 21.4062L7.12929 24.0861V27.2602L5.83575 25.6702L4.75945 26.5277L7.12929 29.4401V32.8252H1.72999Z" fill="black"/>
<path d="M48.4773 34.171L39.1025 0.0253906L31.3433 34.171H38.4726V43.9785H39.855V34.171H48.4773ZM33.0732 32.8037L39.227 5.70363L46.6683 32.8037H39.855V29.4303L42.365 26.5219L41.3144 25.6331L39.855 27.3227V24.0764L42.3473 21.3984L41.3302 20.4725L39.855 22.0586V17.8356H38.4726V21.9785L37.1632 20.4881L36.1185 21.3847L38.4726 24.0646V27.2387L37.179 25.6488L36.1027 26.5063L38.4726 29.4186V32.8037H33.0732Z" fill="black"/>
<path d="M31.4756 31.0672L23.1258 0L16.1584 31.0672H22.4958V39.7535H23.8782V31.0672H31.4756ZM18.8936 25.1858L22.4958 27.5298V29.3268L18.4967 26.9555L18.8936 25.1858ZM21.1865 14.9623L22.4958 16.3843V18.1657L20.7797 16.7769L21.1865 14.9623ZM23.8782 25.9496V23.6056L27.433 21.3808L27.9998 23.4943L23.8782 25.9496ZM28.379 24.8674L28.9359 26.9399L23.8782 29.4792V27.5415L28.379 24.8674ZM23.8782 21.9863V20.033L26.5522 18.0797L27.0696 20.0018L23.8782 21.9863ZM23.8782 18.3278V16.4077L25.6556 14.7572L26.1632 16.6441L23.8782 18.3278ZM22.4958 19.9295V21.9277L20.0035 20.2342L20.4439 18.2672L22.4958 19.9295ZM22.4958 23.5861V25.891L19.2136 23.758L19.6816 21.6816L22.4958 23.5861ZM26.4851 29.6999L29.2973 28.2916L29.6765 29.6999H26.4851ZM23.2463 5.77395L25.2606 13.2649L23.2265 15.1459L21.5518 13.3293L23.2463 5.77395ZM18.1827 28.358L20.4439 29.6999H17.8766L18.1827 28.358Z" fill="black"/>
<path d="M81.5958 16.6343C81.5958 20.4081 78.6217 24.2287 72.9399 24.2287H64.9259V35.091H62.1868V8.92658L72.9281 8.91486C78.5565 8.91681 81.5958 12.8918 81.5958 16.6343ZM78.9258 16.6343C78.9258 13.3 76.0069 11.5694 73.4554 11.5694H64.9279V21.5722H73.4653C76.0326 21.5722 78.9258 19.9529 78.9258 16.6343Z" fill="black"/>
<path d="M83.7544 35.0851V8.91095H86.4481V35.0851H83.7544Z" fill="black"/>
<path d="M92.6769 11.962V35.0851H89.995V8.91095H93.53L109.574 32.0204V8.909H112.258V35.0832H108.782L92.6769 11.962Z" fill="black"/>
<path d="M118.492 19.7693H131.181V22.3184L118.492 22.2676V32.538H133.582V35.0871H115.809V8.9129H133.582V11.46H118.492V19.7693Z" fill="black"/>
<path d="M150.831 23.6623H139.859V35.091H137.117V8.9422L148.035 8.93048C151.382 8.93048 156.704 10.8056 156.704 16.2964C156.704 21.7871 152.774 23.3517 150.831 23.6623ZM154.022 16.2964C154.022 13.4836 151.408 11.626 148.564 11.626H139.859V21.0019H148.564C152.19 21.0038 154.022 19.6092 154.022 16.2964ZM157.265 35.091H154.105L147.734 23.6623H150.821L157.265 35.091Z" fill="black"/>
<path d="M177 8.91486L168.166 24.5022V35.091H165.494V24.5022L156.669 8.91486H159.749L166.837 21.416L173.919 8.92462L177 8.91486Z" fill="black"/>
</g>
<defs>
<clipPath id="clip0_1_37">
<rect width="177" height="44" fill="white"/>
</clipPath>
</defs>
</svg>
